<mxfile host="app.diagrams.net" modified="2024-03-26T16:57:57.617Z" agent="Mozilla/5.0 (Windows NT 10.0; Win64; x64; rv:123.0) Gecko/20100101 Firefox/123.0" etag="s0AqkTHqKSOJthXZa5mu" version="24.1.0" type="device">
  <diagram name="Page-1" id="EOSAStJ8lsHxn56JHP8d">
    <mxGraphModel dx="913" dy="468" grid="1" gridSize="10" guides="1" tooltips="1" connect="1" arrows="1" fold="1" page="1" pageScale="1" pageWidth="850" pageHeight="1100" math="0" shadow="0">
      <root>
        <mxCell id="0" />
        <mxCell id="1" parent="0" />
        <mxCell id="7aUyjqSxOf0ku7Nh73vU-11" value="[10/10] 0" style="rounded=0;orthogonalLoop=1;jettySize=auto;html=1;entryX=0;entryY=0.5;entryDx=0;entryDy=0;" parent="1" source="7aUyjqSxOf0ku7Nh73vU-1" target="7aUyjqSxOf0ku7Nh73vU-2" edge="1">
          <mxGeometry x="-0.0006" relative="1" as="geometry">
            <mxPoint as="offset" />
          </mxGeometry>
        </mxCell>
        <mxCell id="7aUyjqSxOf0ku7Nh73vU-12" value="[10/13] 0" style="edgeStyle=orthogonalEdgeStyle;rounded=0;orthogonalLoop=1;jettySize=auto;html=1;" parent="1" source="7aUyjqSxOf0ku7Nh73vU-1" target="7aUyjqSxOf0ku7Nh73vU-3" edge="1">
          <mxGeometry relative="1" as="geometry" />
        </mxCell>
        <mxCell id="7aUyjqSxOf0ku7Nh73vU-13" value="&lt;div&gt;[15/17] 0&lt;/div&gt;" style="rounded=0;orthogonalLoop=1;jettySize=auto;html=1;entryX=0;entryY=0.5;entryDx=0;entryDy=0;" parent="1" source="7aUyjqSxOf0ku7Nh73vU-1" target="7aUyjqSxOf0ku7Nh73vU-4" edge="1">
          <mxGeometry relative="1" as="geometry" />
        </mxCell>
        <mxCell id="7aUyjqSxOf0ku7Nh73vU-1" value="s" style="ellipse;whiteSpace=wrap;html=1;aspect=fixed;" parent="1" vertex="1">
          <mxGeometry x="160" y="240" width="40" height="40" as="geometry" />
        </mxCell>
        <mxCell id="7aUyjqSxOf0ku7Nh73vU-14" value="[0/15] 4" style="rounded=0;orthogonalLoop=1;jettySize=auto;html=1;" parent="1" source="7aUyjqSxOf0ku7Nh73vU-2" target="7aUyjqSxOf0ku7Nh73vU-5" edge="1">
          <mxGeometry relative="1" as="geometry" />
        </mxCell>
        <mxCell id="7aUyjqSxOf0ku7Nh73vU-15" value="&lt;div&gt;[10/10] 2&lt;/div&gt;" style="rounded=0;orthogonalLoop=1;jettySize=auto;html=1;" parent="1" source="7aUyjqSxOf0ku7Nh73vU-2" target="7aUyjqSxOf0ku7Nh73vU-6" edge="1">
          <mxGeometry relative="1" as="geometry" />
        </mxCell>
        <mxCell id="7aUyjqSxOf0ku7Nh73vU-2" value="A" style="ellipse;whiteSpace=wrap;html=1;aspect=fixed;" parent="1" vertex="1">
          <mxGeometry x="280" y="160" width="40" height="40" as="geometry" />
        </mxCell>
        <mxCell id="7aUyjqSxOf0ku7Nh73vU-16" value="[0/4] 4" style="rounded=0;orthogonalLoop=1;jettySize=auto;html=1;" parent="1" source="7aUyjqSxOf0ku7Nh73vU-3" target="7aUyjqSxOf0ku7Nh73vU-5" edge="1">
          <mxGeometry relative="1" as="geometry" />
        </mxCell>
        <mxCell id="7aUyjqSxOf0ku7Nh73vU-17" value="[1/9] 3" style="rounded=0;orthogonalLoop=1;jettySize=auto;html=1;" parent="1" source="7aUyjqSxOf0ku7Nh73vU-3" target="7aUyjqSxOf0ku7Nh73vU-6" edge="1">
          <mxGeometry relative="1" as="geometry" />
        </mxCell>
        <mxCell id="7aUyjqSxOf0ku7Nh73vU-18" value="&lt;div&gt;[9/9] 8&lt;/div&gt;" style="rounded=0;orthogonalLoop=1;jettySize=auto;html=1;" parent="1" source="7aUyjqSxOf0ku7Nh73vU-3" target="7aUyjqSxOf0ku7Nh73vU-8" edge="1">
          <mxGeometry x="-0.3" relative="1" as="geometry">
            <mxPoint as="offset" />
          </mxGeometry>
        </mxCell>
        <mxCell id="7aUyjqSxOf0ku7Nh73vU-3" value="B" style="ellipse;whiteSpace=wrap;html=1;aspect=fixed;" parent="1" vertex="1">
          <mxGeometry x="280" y="240" width="40" height="40" as="geometry" />
        </mxCell>
        <mxCell id="7aUyjqSxOf0ku7Nh73vU-19" value="[15/20] 2" style="rounded=0;orthogonalLoop=1;jettySize=auto;html=1;" parent="1" source="7aUyjqSxOf0ku7Nh73vU-4" target="7aUyjqSxOf0ku7Nh73vU-5" edge="1">
          <mxGeometry relative="1" as="geometry" />
        </mxCell>
        <mxCell id="7aUyjqSxOf0ku7Nh73vU-20" value="[0/10] 6" style="rounded=0;orthogonalLoop=1;jettySize=auto;html=1;" parent="1" source="7aUyjqSxOf0ku7Nh73vU-4" target="7aUyjqSxOf0ku7Nh73vU-6" edge="1">
          <mxGeometry relative="1" as="geometry" />
        </mxCell>
        <mxCell id="7aUyjqSxOf0ku7Nh73vU-4" value="C" style="ellipse;whiteSpace=wrap;html=1;aspect=fixed;" parent="1" vertex="1">
          <mxGeometry x="280" y="320" width="40" height="40" as="geometry" />
        </mxCell>
        <mxCell id="7aUyjqSxOf0ku7Nh73vU-21" value="[10/10] 3" style="rounded=0;orthogonalLoop=1;jettySize=auto;html=1;" parent="1" source="7aUyjqSxOf0ku7Nh73vU-5" target="7aUyjqSxOf0ku7Nh73vU-7" edge="1">
          <mxGeometry relative="1" as="geometry" />
        </mxCell>
        <mxCell id="7aUyjqSxOf0ku7Nh73vU-22" value="[3/3] 7" style="rounded=0;orthogonalLoop=1;jettySize=auto;html=1;" parent="1" source="7aUyjqSxOf0ku7Nh73vU-5" target="7aUyjqSxOf0ku7Nh73vU-8" edge="1">
          <mxGeometry relative="1" as="geometry" />
        </mxCell>
        <mxCell id="7aUyjqSxOf0ku7Nh73vU-23" value="[2/2] 2" style="rounded=0;orthogonalLoop=1;jettySize=auto;html=1;" parent="1" source="7aUyjqSxOf0ku7Nh73vU-5" target="7aUyjqSxOf0ku7Nh73vU-9" edge="1">
          <mxGeometry relative="1" as="geometry" />
        </mxCell>
        <mxCell id="7aUyjqSxOf0ku7Nh73vU-5" value="D" style="ellipse;whiteSpace=wrap;html=1;aspect=fixed;" parent="1" vertex="1">
          <mxGeometry x="400" y="80" width="40" height="40" as="geometry" />
        </mxCell>
        <mxCell id="7aUyjqSxOf0ku7Nh73vU-24" value="[5/5] 7" style="rounded=0;orthogonalLoop=1;jettySize=auto;html=1;" parent="1" source="7aUyjqSxOf0ku7Nh73vU-6" target="7aUyjqSxOf0ku7Nh73vU-7" edge="1">
          <mxGeometry relative="1" as="geometry" />
        </mxCell>
        <mxCell id="7aUyjqSxOf0ku7Nh73vU-25" value="[1/5] 6" style="rounded=0;orthogonalLoop=1;jettySize=auto;html=1;" parent="1" source="7aUyjqSxOf0ku7Nh73vU-6" target="7aUyjqSxOf0ku7Nh73vU-8" edge="1">
          <mxGeometry relative="1" as="geometry" />
        </mxCell>
        <mxCell id="7aUyjqSxOf0ku7Nh73vU-26" value="[5/5] 3" style="rounded=0;orthogonalLoop=1;jettySize=auto;html=1;" parent="1" source="7aUyjqSxOf0ku7Nh73vU-6" target="7aUyjqSxOf0ku7Nh73vU-9" edge="1">
          <mxGeometry relative="1" as="geometry" />
        </mxCell>
        <mxCell id="7aUyjqSxOf0ku7Nh73vU-32" value="[0/20] 5" style="edgeStyle=orthogonalEdgeStyle;rounded=0;orthogonalLoop=1;jettySize=auto;html=1;" parent="1" source="7aUyjqSxOf0ku7Nh73vU-6" target="7aUyjqSxOf0ku7Nh73vU-5" edge="1">
          <mxGeometry x="-0.2857" relative="1" as="geometry">
            <mxPoint as="offset" />
          </mxGeometry>
        </mxCell>
        <mxCell id="7aUyjqSxOf0ku7Nh73vU-6" value="E" style="ellipse;whiteSpace=wrap;html=1;aspect=fixed;" parent="1" vertex="1">
          <mxGeometry x="400" y="400" width="40" height="40" as="geometry" />
        </mxCell>
        <mxCell id="7aUyjqSxOf0ku7Nh73vU-28" value="[15/15] 0" style="rounded=0;orthogonalLoop=1;jettySize=auto;html=1;" parent="1" source="7aUyjqSxOf0ku7Nh73vU-7" target="7aUyjqSxOf0ku7Nh73vU-10" edge="1">
          <mxGeometry relative="1" as="geometry" />
        </mxCell>
        <mxCell id="7aUyjqSxOf0ku7Nh73vU-7" value="F" style="ellipse;whiteSpace=wrap;html=1;aspect=fixed;" parent="1" vertex="1">
          <mxGeometry x="520" y="160" width="40" height="40" as="geometry" />
        </mxCell>
        <mxCell id="7aUyjqSxOf0ku7Nh73vU-29" value="[13/13] 0" style="rounded=0;orthogonalLoop=1;jettySize=auto;html=1;" parent="1" source="7aUyjqSxOf0ku7Nh73vU-8" target="7aUyjqSxOf0ku7Nh73vU-10" edge="1">
          <mxGeometry relative="1" as="geometry" />
        </mxCell>
        <mxCell id="7aUyjqSxOf0ku7Nh73vU-8" value="G" style="ellipse;whiteSpace=wrap;html=1;aspect=fixed;" parent="1" vertex="1">
          <mxGeometry x="520" y="240" width="40" height="40" as="geometry" />
        </mxCell>
        <mxCell id="7aUyjqSxOf0ku7Nh73vU-30" value="[7/7] 0" style="rounded=0;orthogonalLoop=1;jettySize=auto;html=1;" parent="1" source="7aUyjqSxOf0ku7Nh73vU-9" target="7aUyjqSxOf0ku7Nh73vU-10" edge="1">
          <mxGeometry relative="1" as="geometry" />
        </mxCell>
        <mxCell id="7aUyjqSxOf0ku7Nh73vU-9" value="H" style="ellipse;whiteSpace=wrap;html=1;aspect=fixed;" parent="1" vertex="1">
          <mxGeometry x="520" y="320" width="40" height="40" as="geometry" />
        </mxCell>
        <mxCell id="7aUyjqSxOf0ku7Nh73vU-10" value="t" style="ellipse;whiteSpace=wrap;html=1;aspect=fixed;" parent="1" vertex="1">
          <mxGeometry x="640" y="240" width="40" height="40" as="geometry" />
        </mxCell>
      </root>
    </mxGraphModel>
  </diagram>
</mxfile>
